Coordinates
version=1
nRows=24
nColumns=24
inDegrees=yes

Units are S.I. units (second, meters, Newtons, ...)
Angles are in degrees.

endheader
time	pelvis_tilt	pelvis_list	pelvis_rotation	pelvis_tx	pelvis_ty	pelvis_tz	hip_flexion_r	hip_adduction_r	hip_rotation_r	knee_angle_r	ankle_angle_r	subtalar_angle_r	mtp_angle_r	hip_flexion_l	hip_adduction_l	hip_rotation_l	knee_angle_l	ankle_angle_l	subtalar_angle_l	mtp_angle_l	lumbar_extension	lumbar_bending	lumbar_rotation
      0.52500000	     -4.03568678	      1.62449982	      6.55630650	     -0.78342219	      1.02052276	      0.31452265	     23.92438855	      0.10053379	     -9.41770085	      3.82683611	      4.88910681	      2.71476520	      6.24503477	     -8.65095962	      6.33417226	      7.86413083	    -10.82387757	     10.16900658	     -2.87264314	     -2.31996975	     -2.97650826	     -5.11448211	     -5.33801411
      0.52916667	     -3.98756822	      1.57811676	      6.60263789	     -0.77740938	      1.02001694	      0.31460855	     23.82568425	      0.25887752	     -9.28319503	      3.60130245	      5.02530532	      2.48644623	      6.28649757	     -8.73207672	      6.24770043	      7.82322827	    -11.47684173	     10.26980279	     -2.69478544	     -2.29268321	     -2.95363006	     -5.07152708	     -5.34517389
      0.53333333	     -3.95100971	      1.52195423	      6.64066360	     -0.77138085	      1.01950122	      0.31469942	     23.75790837	      0.42362517	     -9.12886511	      3.28936595	      5.04415493	      2.12233971	      6.36940277	     -8.75993467	      6.14711901	      7.66276257	    -12.20634682	     10.38587204	     -2.37242459	     -2.21430316	     -2.91783563	     -5.01210792	     -5.35288492
      0.53750000	     -3.89605102	      1.45785904	      6.67748257	     -0.76531857	      1.01901867	      0.31477269	     23.67005973	      0.59336891	     -8.93991763	      2.92635233	      5.03055481	      1.70434490	      6.48777746	     -8.79493711	      6.03905705	      7.51859865	    -12.96093934	     10.47149593	     -2.08575675	     -2.08947492	     -2.89591843	     -4.93591260	     -5.35349422
      0.54166667	     -3.81895335	      1.38565087	      6.71510659	     -0.75921819	      1.01859678	      0.31483360	     23.55739879	      0.76948777	     -8.72388489	      2.52317192	      4.94018467	      1.20071675	      6.64053743	     -8.83631729	      5.91898132	      7.35886401	    -13.74593027	     10.53243618	     -1.79186558	     -1.91743324	     -2.89558432	     -4.84502608	     -5.36158812
      0.54583333	     -3.77041705	      1.29373995	      6.75228864	     -0.75308164	      1.01812854	      0.31487321	     23.47994499	      0.95717972	     -8.48061984	      2.07551448	      4.83112516	      0.67052150	      6.78698000	     -8.82744002	      5.78637452	      7.22172636	    -14.57013090	     10.55389129	     -1.54620457	     -1.74319576	     -2.84861414	     -4.71021375	     -5.36639289
      0.55000000	     -3.67790139	      1.22678515	      6.78272047	     -0.74694489	      1.01774698	      0.31494193	     23.35475109	      1.12691408	     -8.21532170	      1.61139781	      4.52492718	     -0.00931212	      7.01832622	     -8.83798916	      5.66642149	      6.99578890	    -15.43994590	     10.54625060	     -1.21676621	     -1.44793346	     -2.86914770	     -4.64887403	     -5.36808233
      0.55416667	     -3.59962810	      1.13621173	      6.81554837	     -0.74075925	      1.01736077	      0.31498421	     23.24275537	      1.31428964	     -7.92837018	      1.12722874	      4.19796603	     -0.72396862	      7.27972966	     -8.81469368	      5.52445436	      6.78159129	    -16.34078315	     10.49212629	     -0.92270575	     -1.09910390	     -2.85454575	     -4.52956478	     -5.37398261
      0.55833333	     -3.53226828	      1.01846927	      6.84572071	     -0.73450539	      1.01697121	      0.31500859	     23.13440755	      1.52579729	     -7.63690039	      0.64397456	      3.80803337	     -1.42141528	      7.49881494	     -8.76363184	      5.35330050	      6.55039864	    -17.26629341	     10.34237970	     -0.65300767	     -0.78722771	     -2.80816943	     -4.33928789	     -5.37906144
      0.56250000	     -3.40898321	      0.93729045	      6.87115748	     -0.72829771	      1.01666850	      0.31508104	     22.97291829	      1.71069102	     -7.30238547	      0.14161760	      3.30651934	     -2.30957264	      7.82471608	     -8.74011213	      5.20605088	      6.26817367	    -18.25179417	     10.26898607	     -0.30443879	     -0.28907135	     -2.85661380	     -4.25829831	     -5.37050224
      0.56666667	     -3.33708592	      0.83437879	      6.90020889	     -0.72204086	      1.01632668	      0.31513895	     22.86203798	      1.90714731	     -6.98085007	     -0.35652744	      2.72785442	     -3.15795244	      8.14818232	     -8.63761832	      5.03715299	      5.97762105	    -19.27051279	     10.05830780	      0.00562466	      0.23994531	     -2.81684871	     -4.11271662	     -5.37148357
      0.57083333	     -3.23761146	      0.72573071	      6.92314624	     -0.71575335	      1.01603075	      0.31520566	     22.71876230	      2.11304082	     -6.65687269	     -0.85266547	      2.08844880	     -4.03170234	      8.48564869	     -8.54524778	      4.85226904	      5.65370547	    -20.31988470	      9.80809258	      0.33615159	      0.83089220	     -2.81230657	     -3.96487536	     -5.36391735
      0.57500000	     -3.12435420	      0.62780262	      6.94356611	     -0.70945453	      1.01580805	      0.31526698	     22.56876700	      2.30258935	     -6.39994334	     -1.36511227	      1.37672318	     -4.80063457	     11.58086121	     -8.45889842	      4.67732895	      5.35740011	    -21.34720884	      9.24096976	      0.44523362	      6.52967208	     -2.82412895	     -3.82236071	     -5.33003182
      0.57916667	     -3.02059448	      0.50883209	      6.97622697	     -0.70315644	      1.01557484	      0.31534517	     22.42842091	      2.50971547	     -6.14233865	     -1.88022011	      0.69298654	     -5.57959953	     11.58344395	     -8.30599045	      4.45341519	      4.94343330	    -22.49321533	      8.93616973	      0.90692093	      6.64546962	     -2.82030838	     -3.65386186	     -5.34792155
      0.58333333	     -2.91656171	      0.39000336	      6.99884174	     -0.69685173	      1.01537837	      0.31544766	     22.28280432	      2.71987893	     -5.85179690	     -2.38400904	     -0.05744423	     -6.41760514	     11.61164675	     -8.13503242	      4.22444234	      4.52305817	    -23.65463942	      8.48445849	      1.27269829	      6.85736815	     -2.81584779	     -3.48868944	     -5.32732390
      0.58750000	     -2.82846751	      0.27345913	      7.01951813	     -0.69055851	      1.01516811	      0.31557761	     22.16373252	      2.92388248	     -5.57967599	     -2.90827775	     -0.79412014	     -7.21040377	     11.65945109	     -7.91601603	      3.98572129	      4.07154323	    -24.86160186	      7.99889480	      1.67239298	      7.15537973	     -2.79484914	     -3.33364629	     -5.30583509
      0.59166667	     -2.69017472	      0.14811074	      7.04468236	     -0.68425979	      1.01510398	      0.31571592	     21.98095996	      3.14011142	     -5.31778591	     -3.41441034	     -1.55050038	     -8.00252229	     11.73139142	     -7.73156763	      3.71573601	      3.60403755	    -26.07806204	      7.40126284	      2.06889503	      7.59514760	     -2.83745488	     -3.16501862	     -5.27868390
      0.59583333	     -2.61630094	      0.02878391	      7.06751639	     -0.67798975	      1.01495537	      0.31588010	     21.89122967	      3.33705510	     -5.09978371	     -3.97274959	     -2.24542119	     -8.69546290	     11.81207954	     -7.44083947	      3.44523958	      3.10544049	    -27.34574751	      6.74133507	      2.46730256	      8.12206095	     -2.79681989	     -3.01166248	     -5.24962215
      0.60000000	     -2.47209099	     -0.09413172	      7.09790728	     -0.67171096	      1.01498092	      0.31603717	     21.72110778	      3.53685350	     -4.95158247	     -4.52637621	     -2.90284525	     -9.26670974	     12.76541901	     -7.21975065	      3.15047420	      2.63321554	    -28.57863158	      5.77574726	      2.70091183	     14.40504354	     -2.84888427	     -2.85065107	     -5.21043193
      0.60416667	     -2.37378797	     -0.23910720	      7.12157728	     -0.66546686	      1.01494072	      0.31622912	     21.62280267	      3.75220167	     -4.82243377	     -5.12993240	     -3.43713737	     -9.75365267	     12.74878807	     -6.89667731	      2.81155507	      2.07918974	    -29.91599973	      4.98891297	      3.15232328	     14.50375752	     -2.84531120	     -2.65485858	     -5.18424698
      0.60833333	     -2.25986190	     -0.37481833	      7.14629600	     -0.65925169	      1.01497912	      0.31644480	     21.50353951	      3.95869268	     -4.69136656	     -5.72869700	     -3.96007667	    -10.24401693	     12.73059308	     -6.56882000	      2.46784975	      1.54074756	    -31.26225448	      4.10119855	      3.55358449	     14.68654679	     -2.86393724	     -2.47760257	     -5.14397585
      0.61250000	     -2.12817536	     -0.52272528	      7.17473953	     -0.65306005	      1.01508014	      0.31667428	     21.36877201	      4.17522641	     -4.59353738	     -6.33956443	     -4.40724006	    -10.67678862	     12.70801009	     -6.22844174	      2.08690755	      0.98111076	    -32.63918036	      3.11570055	      3.95814879	     14.96356686	     -2.90430137	     -2.28367870	     -5.09687554
      0.61666667	     -1.94530099	     -0.66852927	      7.19967140	     -0.64688068	      1.01530834	      0.31694901	     21.14901403	      4.40743033	     -4.42075525	     -6.88710226	     -4.91583876	    -11.27246525	     12.58187601	     -5.93477381	      1.69209315	      0.45227284	    -33.99781707	      1.95981091	      4.24153789	     16.58026921	     -3.02596777	     -2.10960252	     -5.00765235
      0.62083333	     -1.85185478	     -0.82289916	      7.23558244	     -0.64078983	      1.01541687	      0.31716166	     21.11819292	      4.59487500	     -4.54660170	     -7.65425309	     -4.93068046	    -11.14949508	     12.24376705	     -5.49303784	      1.28217635	     -0.07849367	    -35.42661700	      0.79484090	      4.62010534	     19.95946766	     -3.04128675	     -1.89117065	     -4.96870575
